<svg width="24" height="25" viewBox="0 0 24 25" fill="none" xmlns="http://www.w3.org/2000/svg">
<g clip-path="url(#clip0_1_1161)">
<path d="M4 2.00977H20C20.2652 2.00977 20.5196 2.11512 20.7071 2.30266C20.8946 2.4902 21 2.74455 21 3.00977V21.0098C21 21.275 20.8946 21.5293 20.7071 21.7169C20.5196 21.9044 20.2652 22.0098 20 22.0098H4C3.73478 22.0098 3.48043 21.9044 3.29289 21.7169C3.10536 21.5293 3 21.275 3 21.0098V3.00977C3 2.74455 3.10536 2.4902 3.29289 2.30266C3.48043 2.11512 3.73478 2.00977 4 2.00977ZM5 4.00977V20.0098H19V4.00977H5ZM7 6.00977H17V10.0098H7V6.00977ZM7 12.0098H9V14.0098H7V12.0098ZM7 16.0098H9V18.0098H7V16.0098ZM11 12.0098H13V14.0098H11V12.0098ZM11 16.0098H13V18.0098H11V16.0098ZM15 12.0098H17V18.0098H15V12.0098Z" fill="white"/>
</g>
<defs>
<clipPath id="clip0_1_1161">
<rect width="24" height="24" fill="white" transform="translate(0 0.00976562)"/>
</clipPath>
</defs>
</svg>
