<svg width="24" height="26" viewBox="0 0 24 26" fill="none" xmlns="http://www.w3.org/2000/svg">
<path d="M12 22.0098C6.477 22.0098 2 17.5328 2 12.0098C2 6.48677 6.477 2.00977 12 2.00977C17.523 2.00977 22 6.48677 22 12.0098C22 17.5328 17.523 22.0098 12 22.0098ZM9.71 19.6768C8.72341 17.5841 8.15187 15.32 8.027 13.0098H4.062C4.25659 14.5487 4.89392 15.9979 5.89657 17.1815C6.89922 18.365 8.22401 19.2319 9.71 19.6768ZM10.03 13.0098C10.181 15.4488 10.878 17.7398 12 19.7618C13.1523 17.6863 13.8254 15.3792 13.97 13.0098H10.03ZM19.938 13.0098H15.973C15.8481 15.32 15.2766 17.5841 14.29 19.6768C15.776 19.2319 17.1008 18.365 18.1034 17.1815C19.1061 15.9979 19.7434 14.5487 19.938 13.0098ZM4.062 11.0098H8.027C8.15187 8.69955 8.72341 6.43545 9.71 4.34277C8.22401 4.78765 6.89922 5.65452 5.89657 6.83806C4.89392 8.0216 4.25659 9.47087 4.062 11.0098ZM10.031 11.0098H13.969C13.8248 8.64036 13.152 6.3333 12 4.25777C10.8477 6.33321 10.1746 8.64029 10.03 11.0098H10.031ZM14.29 4.34277C15.2766 6.43545 15.8481 8.69955 15.973 11.0098H19.938C19.7434 9.47087 19.1061 8.0216 18.1034 6.83806C17.1008 5.65452 15.776 4.78765 14.29 4.34277Z" fill="white"/>
</svg>
