<svg width="215" height="43" viewBox="0 0 215 43" fill="none" xmlns="http://www.w3.org/2000/svg">
<path fill-rule="evenodd" clip-rule="evenodd" d="M30.1575 31.7731C30.1575 31.6173 30.1575 31.4616 30.1575 31.3058C30.1928 30.5992 30.0348 29.8963 29.7006 29.2741C29.5763 29.0461 29.3928 28.8565 29.1699 28.7255C28.9468 28.597 28.6944 28.5293 28.4375 28.5291C28.1119 28.5378 27.7925 28.6212 27.5036 28.7729C27.2165 28.923 26.9663 29.1359 26.7713 29.396C25.3973 31.1211 23.921 32.7607 22.3505 34.306C21.6342 35.1345 20.6522 35.6833 19.5757 35.8569C19.2317 35.8793 18.889 35.7962 18.5928 35.6185C18.2966 35.4408 18.0607 35.1768 17.9162 34.8613C17.5392 33.9586 17.3715 32.9812 17.4257 32.0034C17.6486 28.882 18.1432 25.7864 18.9038 22.7523C19.3693 21.1173 19.62 19.4279 19.6496 17.7271C19.662 17.335 19.5909 16.9448 19.4413 16.5826C19.287 16.2199 19.058 15.8944 18.7694 15.6277C18.4857 15.3581 18.1488 15.1518 17.7807 15.0223C17.4125 14.8928 17.0215 14.8429 16.6329 14.876C15.5943 14.7736 14.5561 15.0758 13.7315 15.7206C12.9069 16.3654 12.3585 17.3039 12.1986 18.3434C11.5172 20.5421 11.0051 22.7904 10.6668 25.0684C10.2457 27.4482 10.0098 29.8574 9.96133 32.2743C9.83759 34.9238 10.4694 37.5537 11.7821 39.8526C12.2238 40.5675 12.812 41.179 13.5072 41.6462C14.2024 42.1134 14.9887 42.4255 15.8132 42.5615H15.4101C12.1498 42.5524 8.97581 41.5041 6.34235 39.5665C3.7089 37.6289 1.75089 34.9014 0.748484 31.7741C-0.253924 28.6468 -0.249367 25.2801 0.761504 22.1556C1.77237 19.0311 3.73776 16.3089 6.37645 14.3786C9.01515 12.4483 12.1919 11.4087 15.4523 11.4086C18.7127 11.4085 21.8895 12.4478 24.5283 14.378C27.1672 16.3081 29.1327 19.0302 30.1438 22.1546C31.1549 25.279 31.1597 28.6458 30.1575 31.7731ZM18.2185 8.57087C19.4846 8.63111 20.7254 8.19966 21.6853 7.36538C22.1209 6.94277 22.4602 6.42977 22.6797 5.86191C22.9013 5.30046 23.002 4.69797 22.9753 4.09432C23.0033 3.59929 22.9135 3.10469 22.7133 2.6518C22.5128 2.1985 22.209 1.79937 21.8264 1.48695C20.956 0.844258 19.8944 0.519421 18.8165 0.5659C17.5647 0.537235 16.3466 0.976256 15.3967 1.79848C14.9544 2.16342 14.6024 2.62715 14.3687 3.15295C14.1273 3.66944 14.0055 4.23451 14.0127 4.80542C13.9855 5.31896 14.0654 5.83253 14.2471 6.31308C14.4287 6.79363 14.7082 7.23053 15.0675 7.59565C15.9606 8.31514 17.0924 8.66395 18.2319 8.57087H18.2185Z" fill="#20DDA4"/>
<path d="M46.8094 22.7502H48.7002V32.2596H46.8094V22.7502ZM47.7639 21.1811C47.4791 21.1811 47.2397 21.0829 47.0458 20.8864C46.8518 20.6898 46.7549 20.4426 46.7549 20.1446C46.7549 19.853 46.8518 19.6089 47.0458 19.4124C47.2397 19.2095 47.4791 19.1081 47.7639 19.1081C48.0427 19.1081 48.2791 19.2095 48.473 19.4124C48.6669 19.6089 48.7639 19.853 48.7639 20.1446C48.7639 20.4426 48.6669 20.6898 48.473 20.8864C48.2791 21.0829 48.0427 21.1811 47.7639 21.1811Z" fill="#20DDA4"/>
<path d="M60.2891 18.9464V20.9244H56.2347V32.2596H54.3439V20.9244H50.2986V18.9464H60.2891Z" fill="#20DDA4"/>
<path d="M64.4982 32.5069C63.6619 32.5069 62.8983 32.2818 62.2074 31.8317C61.5226 31.3816 60.9742 30.7793 60.5621 30.0249C60.156 29.2642 59.953 28.4242 59.953 27.5049C59.953 26.8076 60.0712 26.1577 60.3075 25.5555C60.5439 24.9469 60.8681 24.4144 61.2802 23.9579C61.6984 23.4951 62.1832 23.1337 62.7347 22.8738C63.2862 22.6139 63.874 22.4839 64.4982 22.4839C65.1952 22.4839 65.8345 22.6361 66.4163 22.9404C66.9981 23.2384 67.4951 23.6536 67.9072 24.1861C68.3193 24.7123 68.6223 25.3209 68.8162 26.0119C69.0101 26.6966 69.0677 27.4257 68.9889 28.1991H61.9802C62.059 28.6365 62.2105 29.0328 62.4347 29.3878C62.665 29.7365 62.9559 30.0122 63.3074 30.2151C63.6649 30.418 64.0619 30.5226 64.4982 30.5289C64.9588 30.5289 65.377 30.4085 65.7527 30.1676C66.1345 29.9267 66.4466 29.5938 66.689 29.1691L68.6071 29.635C68.2435 30.4782 67.6951 31.1692 66.9618 31.7081C66.2285 32.2406 65.4073 32.5069 64.4982 32.5069ZM61.9165 26.6871H67.0799C67.0193 26.2307 66.8648 25.8186 66.6163 25.4509C66.3739 25.0768 66.0679 24.782 65.6982 24.5665C65.3346 24.3446 64.9346 24.2337 64.4982 24.2337C64.068 24.2337 63.668 24.3414 63.2983 24.557C62.9347 24.7725 62.6317 25.0673 62.3892 25.4414C62.1529 25.8091 61.9953 26.2243 61.9165 26.6871Z" fill="#20DDA4"/>
<path d="M77.6668 22.7502H79.5576V32.2596H77.6577L77.585 30.8808C77.3183 31.3689 76.9577 31.762 76.5032 32.0599C76.0548 32.3579 75.5214 32.5069 74.9033 32.5069C74.2306 32.5069 73.6003 32.3769 73.0125 32.117C72.4307 31.8507 71.9156 31.483 71.4671 31.0139C71.0247 30.5448 70.6762 30.0059 70.4217 29.3973C70.1732 28.7824 70.049 28.123 70.049 27.4193C70.049 26.741 70.1702 26.1039 70.4126 25.5079C70.655 24.9057 70.9914 24.3795 71.4216 23.9294C71.8519 23.4793 72.3489 23.1274 72.9125 22.8738C73.4821 22.6139 74.0912 22.4839 74.7397 22.4839C75.4002 22.4839 75.982 22.6424 76.485 22.9594C76.9941 23.2701 77.4123 23.6694 77.7395 24.1576L77.6668 22.7502ZM74.9487 30.5955C75.4942 30.5955 75.9638 30.4528 76.3578 30.1676C76.7577 29.8823 77.0577 29.4987 77.2577 29.0169C77.4638 28.5351 77.5517 28.0026 77.5214 27.4193C77.485 26.8614 77.3426 26.3543 77.0941 25.8978C76.8517 25.4414 76.5275 25.08 76.1214 24.8137C75.7154 24.5411 75.2548 24.4048 74.7397 24.4048C74.2003 24.4048 73.7124 24.5475 73.2761 24.8328C72.8458 25.118 72.5125 25.5016 72.2761 25.9834C72.0398 26.4652 71.9368 27.0009 71.9671 27.5905C72.0034 28.142 72.161 28.646 72.4398 29.1025C72.7246 29.559 73.0852 29.9235 73.5215 30.1961C73.9639 30.4624 74.4397 30.5955 74.9487 30.5955Z" fill="#20DDA4"/>
<path d="M87.3675 29.559L89.0583 30.5194C88.6462 31.1217 88.122 31.6035 87.4857 31.9648C86.8554 32.3262 86.1706 32.5069 85.4312 32.5069C84.5949 32.5069 83.8313 32.2818 83.1404 31.8317C82.4556 31.3816 81.9071 30.7793 81.495 30.0249C81.089 29.2642 80.886 28.4242 80.886 27.5049C80.886 26.8076 81.0041 26.1577 81.2405 25.5555C81.4768 24.9469 81.8011 24.4144 82.2132 23.9579C82.6313 23.4951 83.1162 23.1337 83.6677 22.8738C84.2191 22.6139 84.807 22.4839 85.4312 22.4839C86.1706 22.4839 86.8554 22.6646 87.4857 23.026C88.122 23.3873 88.6462 23.8723 89.0583 24.4809L87.3675 25.4414C87.1129 25.1244 86.816 24.8835 86.4766 24.7187C86.1372 24.5475 85.7888 24.4619 85.4312 24.4619C84.9343 24.4619 84.4828 24.6045 84.0767 24.8898C83.6767 25.1688 83.3586 25.5396 83.1222 26.0024C82.8919 26.4589 82.7768 26.9597 82.7768 27.5049C82.7768 28.0438 82.895 28.5446 83.1313 29.0074C83.3677 29.4639 83.6858 29.8316 84.0858 30.1105C84.4919 30.3894 84.9403 30.5289 85.4312 30.5289C85.8069 30.5289 86.1645 30.4402 86.5039 30.2627C86.8433 30.0851 87.1311 29.8506 87.3675 29.559Z" fill="#20DDA4"/>
<path d="M98.9483 27.2862V32.2596H97.0575V27.3242C97.0575 26.7854 96.9484 26.294 96.7303 25.8503C96.5181 25.4065 96.2333 25.0547 95.8758 24.7947C95.5182 24.5348 95.1212 24.4048 94.6849 24.4048C94.2122 24.4048 93.8092 24.5348 93.4759 24.7947C93.1425 25.0547 92.885 25.4065 92.7032 25.8503C92.5274 26.294 92.4396 26.7854 92.4396 27.3242V32.2596H90.5396V17.9955H92.4305V23.8628C92.685 23.3493 93.0183 22.9943 93.4304 22.7977C93.8486 22.5949 94.3273 22.4934 94.8667 22.4934C95.6849 22.4934 96.3969 22.7122 97.003 23.1496C97.609 23.587 98.0817 24.1703 98.4211 24.8993C98.7605 25.622 98.9362 26.4177 98.9483 27.2862Z" fill="#20DDA4"/>
<path d="M105.134 32.2596V18.9464H109.516C110.201 18.9464 110.819 19.1239 111.37 19.479C111.928 19.834 112.37 20.3126 112.697 20.9149C113.031 21.5171 113.197 22.1828 113.197 22.9119C113.197 23.6536 113.028 24.3256 112.688 24.9279C112.355 25.5238 111.91 25.9993 111.352 26.3543C110.794 26.7093 110.182 26.8868 109.516 26.8868H107.025V32.2596H105.134ZM107.025 24.9088H109.325C109.688 24.9088 110.019 24.8137 110.316 24.6236C110.619 24.4334 110.858 24.1798 111.034 23.8628C111.216 23.5458 111.307 23.1876 111.307 22.7882C111.307 22.3888 111.216 22.0307 111.034 21.7137C110.858 21.3904 110.619 21.1368 110.316 20.9529C110.019 20.7627 109.688 20.6676 109.325 20.6676H107.025V24.9088Z" fill="#20DDA4"/>
<path d="M120.059 24.7377C119.901 24.6362 119.728 24.557 119.541 24.4999C119.359 24.4365 119.159 24.4048 118.941 24.4048C118.468 24.4048 118.056 24.5348 117.704 24.7947C117.353 25.0547 117.077 25.4065 116.877 25.8503C116.683 26.294 116.586 26.7854 116.586 27.3242V32.2596H114.686V22.7502H116.577V24.034C116.892 23.5585 117.274 23.1845 117.722 22.9119C118.177 22.6329 118.683 22.4934 119.241 22.4934C119.447 22.4934 119.641 22.503 119.822 22.522C120.01 22.541 120.189 22.579 120.359 22.6361L120.059 24.7377Z" fill="#20DDA4"/>
<path d="M125.113 32.5069C124.277 32.5069 123.513 32.2818 122.823 31.8317C122.138 31.3816 121.589 30.7793 121.177 30.0249C120.771 29.2642 120.568 28.4242 120.568 27.5049C120.568 26.8076 120.686 26.1577 120.923 25.5555C121.159 24.9469 121.483 24.4144 121.895 23.9579C122.313 23.4951 122.798 23.1337 123.35 22.8738C123.901 22.6139 124.489 22.4839 125.113 22.4839C125.95 22.4839 126.71 22.709 127.395 23.1591C128.086 23.6092 128.634 24.2147 129.04 24.9754C129.453 25.7362 129.659 26.5793 129.659 27.5049C129.659 28.1959 129.54 28.8426 129.304 29.4448C129.068 30.0471 128.74 30.5796 128.322 31.0424C127.91 31.4989 127.428 31.8571 126.877 32.117C126.331 32.3769 125.744 32.5069 125.113 32.5069ZM125.113 30.5289C125.616 30.5289 126.068 30.3894 126.468 30.1105C126.868 29.8316 127.183 29.4639 127.413 29.0074C127.65 28.5446 127.768 28.0438 127.768 27.5049C127.768 26.9534 127.647 26.4462 127.404 25.9834C127.168 25.5206 126.85 25.1529 126.45 24.8803C126.05 24.6014 125.604 24.4619 125.113 24.4619C124.616 24.4619 124.165 24.6014 123.759 24.8803C123.359 25.1593 123.041 25.5301 122.804 25.9929C122.574 26.4557 122.459 26.9597 122.459 27.5049C122.459 28.0691 122.58 28.5795 122.823 29.0359C123.065 29.4924 123.386 29.8569 123.786 30.1295C124.192 30.3958 124.635 30.5289 125.113 30.5289Z" fill="#20DDA4"/>
<path d="M138.027 22.7502H139.918V32.5069C139.918 33.1599 139.785 33.7621 139.518 34.3137C139.258 34.8652 138.903 35.3407 138.455 35.7401C138.006 36.1458 137.491 36.4596 136.909 36.6815C136.333 36.9034 135.73 37.0144 135.1 37.0144C134.464 37.0144 133.852 36.8717 133.264 36.5864C132.676 36.3075 132.158 35.9271 131.709 35.4453C131.267 34.9635 130.937 34.4183 130.719 33.8097L132.455 32.9919C132.576 33.3849 132.77 33.7336 133.037 34.0379C133.309 34.3422 133.625 34.5831 133.982 34.7606C134.346 34.9381 134.718 35.0269 135.1 35.0269C135.476 35.0269 135.837 34.9635 136.182 34.8367C136.533 34.7162 136.846 34.5451 137.118 34.3232C137.397 34.1013 137.618 33.835 137.782 33.5244C137.946 33.2137 138.027 32.8746 138.027 32.5069V30.8998C137.73 31.3816 137.349 31.7715 136.882 32.0694C136.415 32.3611 135.873 32.5069 135.255 32.5069C134.612 32.5069 134.006 32.3769 133.437 32.117C132.867 31.8571 132.367 31.4989 131.937 31.0424C131.506 30.5796 131.17 30.0471 130.928 29.4448C130.685 28.8426 130.564 28.1959 130.564 27.5049C130.564 26.8139 130.685 26.1673 130.928 25.565C131.17 24.9564 131.506 24.4239 131.937 23.9674C132.367 23.5046 132.867 23.1433 133.437 22.8833C134.006 22.6234 134.612 22.4934 135.255 22.4934C135.873 22.4934 136.415 22.6424 136.882 22.9404C137.349 23.232 137.73 23.6219 138.027 24.11V22.7502ZM135.273 30.5955C135.8 30.5955 136.261 30.456 136.655 30.1771C137.049 29.8918 137.355 29.5146 137.573 29.0454C137.791 28.5763 137.9 28.0628 137.9 27.5049C137.9 26.9344 137.788 26.4177 137.564 25.9549C137.346 25.4857 137.04 25.1117 136.646 24.8328C136.252 24.5475 135.794 24.4048 135.273 24.4048C134.764 24.4048 134.297 24.5443 133.873 24.8233C133.455 25.1022 133.122 25.4762 132.873 25.9454C132.625 26.4145 132.5 26.9344 132.5 27.5049C132.5 28.0755 132.625 28.5953 132.873 29.0645C133.128 29.5336 133.464 29.9076 133.882 30.1866C134.306 30.4592 134.77 30.5955 135.273 30.5955Z" fill="#20DDA4"/>
<path d="M147.472 24.7377C147.315 24.6362 147.142 24.557 146.954 24.4999C146.772 24.4365 146.572 24.4048 146.354 24.4048C145.881 24.4048 145.469 24.5348 145.118 24.7947C144.766 25.0547 144.491 25.4065 144.291 25.8503C144.097 26.294 144 26.7854 144 27.3242V32.2596H142.1V22.7502H143.991V24.034C144.306 23.5585 144.688 23.1845 145.136 22.9119C145.59 22.6329 146.097 22.4934 146.654 22.4934C146.86 22.4934 147.054 22.503 147.236 22.522C147.424 22.541 147.603 22.579 147.772 22.6361L147.472 24.7377Z" fill="#20DDA4"/>
<path d="M155.699 22.7502H157.59V32.2596H155.69L155.618 30.8808C155.351 31.3689 154.99 31.762 154.536 32.0599C154.087 32.3579 153.554 32.5069 152.936 32.5069C152.263 32.5069 151.633 32.3769 151.045 32.117C150.463 31.8507 149.948 31.483 149.5 31.0139C149.057 30.5448 148.709 30.0059 148.454 29.3973C148.206 28.7824 148.082 28.123 148.082 27.4193C148.082 26.741 148.203 26.1039 148.445 25.5079C148.688 24.9057 149.024 24.3795 149.454 23.9294C149.885 23.4793 150.381 23.1274 150.945 22.8738C151.515 22.6139 152.124 22.4839 152.772 22.4839C153.433 22.4839 154.015 22.6424 154.518 22.9594C155.027 23.2701 155.445 23.6694 155.772 24.1576L155.699 22.7502ZM152.981 30.5955C153.527 30.5955 153.996 30.4528 154.39 30.1676C154.79 29.8823 155.09 29.4987 155.29 29.0169C155.496 28.5351 155.584 28.0026 155.554 27.4193C155.518 26.8614 155.375 26.3543 155.127 25.8978C154.884 25.4414 154.56 25.08 154.154 24.8137C153.748 24.5411 153.287 24.4048 152.772 24.4048C152.233 24.4048 151.745 24.5475 151.309 24.8328C150.878 25.118 150.545 25.5016 150.309 25.9834C150.072 26.4652 149.969 27.0009 150 27.5905C150.036 28.142 150.194 28.646 150.472 29.1025C150.757 29.559 151.118 29.9235 151.554 30.1961C151.997 30.4624 152.472 30.5955 152.981 30.5955Z" fill="#20DDA4"/>
<path d="M159.466 32.2596V22.7502H161.357V23.9008C161.648 23.5268 161.954 23.2225 162.275 22.9879C162.602 22.747 162.99 22.6266 163.438 22.6266C164.105 22.6266 164.696 22.7851 165.211 23.102C165.732 23.4127 166.169 23.847 166.52 24.4048C166.872 23.8406 167.308 23.4032 167.829 23.0925C168.356 22.7819 168.944 22.6266 169.593 22.6266C170.374 22.6266 171.062 22.8326 171.656 23.2447C172.25 23.6568 172.717 24.2051 173.056 24.8898C173.396 25.5682 173.565 26.3162 173.565 27.134V32.2596H171.674V27.134C171.674 26.6649 171.586 26.2402 171.411 25.8598C171.241 25.4794 171.002 25.1751 170.693 24.9469C170.384 24.7187 170.017 24.6045 169.593 24.6045C169.181 24.6045 168.811 24.7187 168.484 24.9469C168.162 25.1751 167.911 25.4794 167.729 25.8598C167.553 26.2402 167.465 26.6649 167.465 27.134V32.2596H165.575V27.134C165.575 26.6649 165.484 26.2402 165.302 25.8598C165.12 25.4794 164.869 25.1751 164.547 24.9469C164.226 24.7187 163.857 24.6045 163.438 24.6045C163.038 24.6045 162.681 24.725 162.366 24.9659C162.057 25.2068 161.811 25.5238 161.629 25.9168C161.448 26.3099 161.357 26.741 161.357 27.2101V32.2596H159.466Z" fill="#20DDA4"/>
<path d="M175.143 32.2596V22.7502H177.034V23.9008C177.325 23.5268 177.631 23.2225 177.952 22.9879C178.28 22.747 178.667 22.6266 179.116 22.6266C179.783 22.6266 180.373 22.7851 180.889 23.102C181.41 23.4127 181.846 23.847 182.198 24.4048C182.549 23.8406 182.985 23.4032 183.507 23.0925C184.034 22.7819 184.622 22.6266 185.27 22.6266C186.052 22.6266 186.74 22.8326 187.334 23.2447C187.928 23.6568 188.394 24.2051 188.734 24.8898C189.073 25.5682 189.243 26.3162 189.243 27.134V32.2596H187.352V27.134C187.352 26.6649 187.264 26.2402 187.088 25.8598C186.919 25.4794 186.679 25.1751 186.37 24.9469C186.061 24.7187 185.694 24.6045 185.27 24.6045C184.858 24.6045 184.488 24.7187 184.161 24.9469C183.84 25.1751 183.588 25.4794 183.407 25.8598C183.231 26.2402 183.143 26.6649 183.143 27.134V32.2596H181.252V27.134C181.252 26.6649 181.161 26.2402 180.979 25.8598C180.798 25.4794 180.546 25.1751 180.225 24.9469C179.904 24.7187 179.534 24.6045 179.116 24.6045C178.716 24.6045 178.358 24.725 178.043 24.9659C177.734 25.2068 177.489 25.5238 177.307 25.9168C177.125 26.3099 177.034 26.741 177.034 27.2101V32.2596H175.143Z" fill="#20DDA4"/>
<path d="M191.121 22.7502H193.012V32.2596H191.121V22.7502ZM192.075 21.1811C191.791 21.1811 191.551 21.0829 191.357 20.8864C191.163 20.6898 191.066 20.4426 191.066 20.1446C191.066 19.853 191.163 19.6089 191.357 19.4124C191.551 19.2095 191.791 19.1081 192.075 19.1081C192.354 19.1081 192.591 19.2095 192.784 19.4124C192.978 19.6089 193.075 19.853 193.075 20.1446C193.075 20.4426 192.978 20.6898 192.784 20.8864C192.591 21.0829 192.354 21.1811 192.075 21.1811Z" fill="#20DDA4"/>
<path d="M204.244 27.2767V32.2596H202.353V27.3147C202.353 26.7759 202.244 26.2877 202.026 25.8503C201.814 25.4065 201.52 25.0547 201.144 24.7947C200.775 24.5285 200.353 24.3953 199.881 24.3953C199.408 24.3953 198.993 24.5285 198.635 24.7947C198.284 25.0547 198.008 25.4065 197.808 25.8503C197.614 26.2877 197.517 26.7759 197.517 27.3147V32.2596H195.626V22.7502H197.517V24.034C197.832 23.5522 198.214 23.175 198.663 22.9024C199.111 22.6234 199.617 22.4839 200.181 22.4839C200.999 22.4839 201.708 22.7027 202.308 23.1401C202.914 23.5775 203.387 24.1576 203.726 24.8803C204.065 25.603 204.238 26.4018 204.244 27.2767Z" fill="#20DDA4"/>
<path d="M212.864 22.7502H214.755V32.5069C214.755 33.1599 214.622 33.7621 214.355 34.3137C214.094 34.8652 213.74 35.3407 213.291 35.7401C212.843 36.1458 212.328 36.4596 211.746 36.6815C211.17 36.9034 210.567 37.0144 209.937 37.0144C209.301 37.0144 208.689 36.8717 208.101 36.5864C207.513 36.3075 206.995 35.9271 206.546 35.4453C206.104 34.9635 205.773 34.4183 205.555 33.8097L207.292 32.9919C207.413 33.3849 207.607 33.7336 207.873 34.0379C208.146 34.3422 208.461 34.5831 208.819 34.7606C209.182 34.9381 209.555 35.0269 209.937 35.0269C210.313 35.0269 210.673 34.9635 211.019 34.8367C211.37 34.7162 211.682 34.5451 211.955 34.3232C212.234 34.1013 212.455 33.835 212.619 33.5244C212.782 33.2137 212.864 32.8746 212.864 32.5069V30.8998C212.567 31.3816 212.185 31.7715 211.719 32.0694C211.252 32.3611 210.71 32.5069 210.091 32.5069C209.449 32.5069 208.843 32.3769 208.273 32.117C207.704 31.8571 207.204 31.4989 206.773 31.0424C206.343 30.5796 206.007 30.0471 205.764 29.4448C205.522 28.8426 205.401 28.1959 205.401 27.5049C205.401 26.8139 205.522 26.1673 205.764 25.565C206.007 24.9564 206.343 24.4239 206.773 23.9674C207.204 23.5046 207.704 23.1433 208.273 22.8833C208.843 22.6234 209.449 22.4934 210.091 22.4934C210.71 22.4934 211.252 22.6424 211.719 22.9404C212.185 23.232 212.567 23.6219 212.864 24.11V22.7502ZM210.11 30.5955C210.637 30.5955 211.098 30.456 211.491 30.1771C211.885 29.8918 212.191 29.5146 212.41 29.0454C212.628 28.5763 212.737 28.0628 212.737 27.5049C212.737 26.9344 212.625 26.4177 212.4 25.9549C212.182 25.4857 211.876 25.1117 211.482 24.8328C211.088 24.5475 210.631 24.4048 210.11 24.4048C209.601 24.4048 209.134 24.5443 208.71 24.8233C208.292 25.1022 207.958 25.4762 207.71 25.9454C207.461 26.4145 207.337 26.9344 207.337 27.5049C207.337 28.0755 207.461 28.5953 207.71 29.0645C207.964 29.5336 208.301 29.9076 208.719 30.1866C209.143 30.4592 209.607 30.5955 210.11 30.5955Z" fill="#20DDA4"/>
</svg>
