<svg width="33" height="34" viewBox="0 0 33 34" fill="none" xmlns="http://www.w3.org/2000/svg">
<g clip-path="url(#clip0_1_1144)">
<path d="M12.8783 14.6975C14.1685 16.9642 16.0456 18.8413 18.3123 20.1315L19.5278 18.4293C19.7232 18.1556 20.0122 17.963 20.3401 17.888C20.668 17.813 21.012 17.8608 21.307 18.0223C23.2517 19.085 25.3993 19.7242 27.6086 19.8978C27.9534 19.9251 28.2753 20.0814 28.51 20.3355C28.7447 20.5895 28.875 20.9227 28.875 21.2686V27.4039C28.8751 27.7443 28.7488 28.0727 28.5208 28.3254C28.2927 28.5782 27.9789 28.7373 27.6402 28.772C26.9115 28.8476 26.1772 28.8848 25.4375 28.8848C13.6675 28.8848 4.125 19.3423 4.125 7.57227C4.125 6.83252 4.16213 6.09827 4.23775 5.36952C4.27248 5.03085 4.4316 4.71711 4.68434 4.48901C4.93707 4.26092 5.26543 4.13469 5.60588 4.13477H11.7411C12.087 4.13472 12.4202 4.26505 12.6743 4.49976C12.9284 4.73447 13.0847 5.05632 13.112 5.40114C13.2856 7.61048 13.9247 9.75807 14.9875 11.7028C15.149 11.9978 15.1968 12.3418 15.1218 12.6697C15.0468 12.9975 14.8542 13.2865 14.5805 13.482L12.8783 14.6975ZM9.4105 13.7941L12.023 11.9283C11.2816 10.3279 10.7736 8.62942 10.5146 6.88477H6.88875C6.8805 7.11302 6.87637 7.34264 6.87637 7.57227C6.875 17.8243 15.1855 26.1348 25.4375 26.1348C25.6671 26.1348 25.8967 26.1306 26.125 26.121V22.4951C24.3803 22.2362 22.6819 21.7282 21.0815 20.9868L19.2156 23.5993C18.4644 23.3074 17.7348 22.9628 17.0321 22.568L16.9524 22.5226C14.2554 20.9878 12.022 18.7543 10.4871 16.0574L10.4417 15.9776C10.047 15.275 9.70239 14.5454 9.4105 13.7941Z" fill="#02C58A"/>
</g>
<defs>
<clipPath id="clip0_1_1144">
<rect width="33" height="33" fill="white" transform="translate(0 0.00976562)"/>
</clipPath>
</defs>
</svg>
